<svg width="87" height="87" viewBox="0 0 87 87" fill="none" xmlns="http://www.w3.org/2000/svg">
<path d="M87 43.5C87 52.1035 84.4488 60.5138 79.6689 67.6673C74.8891 74.8208 68.0953 80.3963 60.1467 83.6888C52.1981 86.9812 43.4517 87.8426 35.0136 86.1642C26.5754 84.4857 18.8244 80.3427 12.7409 74.2591C6.65727 68.1756 2.51429 60.4246 0.835837 51.9864C-0.84262 43.5483 0.0188251 34.8019 3.31124 26.8533C6.60365 18.9047 12.1792 12.1109 19.3327 7.33107C26.4862 2.55123 34.8965 -1.02596e-07 43.5 0V11.9056C37.2512 11.9056 31.1428 13.7586 25.9471 17.2302C20.7514 20.7018 16.7019 25.6362 14.3106 31.4093C11.9193 37.1825 11.2936 43.535 12.5127 49.6638C13.7317 55.7925 16.7408 61.4221 21.1594 65.8406C25.5779 70.2592 31.2075 73.2682 37.3362 74.4873C43.4649 75.7064 49.8175 75.0807 55.5907 72.6894C61.3638 70.2981 66.2981 66.2486 69.7698 61.0529C73.2414 55.8572 75.0944 49.7488 75.0944 43.5H87Z" fill="#DCDCDC"/>
<path fill-rule="evenodd" clip-rule="evenodd" d="M77.1745 66.0006C81.0672 60.1748 83.3723 53.4537 83.8888 46.5H77.9641C77.4607 52.2839 75.5076 57.8656 72.2642 62.7196C68.4629 68.4086 63.06 72.8427 56.7387 75.4611C50.4174 78.0794 43.4616 78.7645 36.751 77.4297C30.0403 76.0949 23.8762 72.8001 19.0381 67.9619C14.1999 63.1238 10.9051 56.9597 9.57031 50.249C8.23548 43.5384 8.92056 36.5826 11.5389 30.2613C14.1573 23.94 18.5914 18.5371 24.2804 14.7358C29.1344 11.4924 34.7161 9.53933 40.5 9.03589V3.11124C33.5463 3.62769 26.8252 5.93278 20.9994 9.82548C14.3392 14.2757 9.14823 20.6009 6.08288 28.0013C3.01753 35.4017 2.21549 43.5449 3.77819 51.4012C5.34089 59.2574 9.19815 66.4738 14.8622 72.1378C20.5262 77.8018 27.7426 81.6591 35.5988 83.2218C43.4551 84.7845 51.5983 83.9825 58.9987 80.9171C66.3991 77.8518 72.7243 72.6608 77.1745 66.0006ZM40.5 0.103549C32.9523 0.625261 25.6521 3.10857 19.3327 7.33107C12.1792 12.1109 6.60365 18.9047 3.31124 26.8533C0.0188251 34.8019 -0.84262 43.5483 0.835837 51.9864C2.51429 60.4246 6.65727 68.1756 12.7409 74.2591C18.8244 80.3427 26.5754 84.4857 35.0136 86.1642C43.4517 87.8426 52.1981 86.9812 60.1467 83.6888C68.0953 80.3963 74.8891 74.8208 79.6689 67.6673C83.8914 61.3479 86.3747 54.0477 86.8965 46.5C86.9653 45.5037 87 44.5032 87 43.5H75.0944C75.0944 49.7488 73.2414 55.8572 69.7698 61.0529C66.2981 66.2486 61.3638 70.2981 55.5907 72.6894C49.8175 75.0807 43.4649 75.7064 37.3362 74.4873C31.2075 73.2682 25.5779 70.2592 21.1594 65.8406C16.7408 61.4221 13.7317 55.7925 12.5127 49.6638C11.2936 43.535 11.9193 37.1825 14.3106 31.4093C16.7019 25.6362 20.7514 20.7018 25.9471 17.2302C31.1428 13.7586 37.2512 11.9056 43.5 11.9056V0C42.4968 0 41.4962 0.034687 40.5 0.103549Z" fill="#DCDCDC"/>
<path fill-rule="evenodd" clip-rule="evenodd" d="M57.4823 23.026C54.213 20.8744 50.4945 19.5324 46.6337 19.0908L46.6452 20.7332C50.1826 21.1684 53.5868 22.4132 56.5864 24.3873C60.4271 26.915 63.432 30.5248 65.2212 34.7602C67.0104 38.9957 67.5034 43.6666 66.6379 48.1822C65.7724 52.6979 63.5874 56.8555 60.359 60.1293C57.1306 63.4031 53.0039 65.646 48.5008 66.5745C43.9977 67.503 39.3204 67.0753 35.0603 65.3455C30.8003 63.6157 27.1488 60.6615 24.5678 56.8565C22.552 53.8848 21.2597 50.4983 20.7751 46.9673L19.1327 46.9788C19.6282 50.833 21.0221 54.5324 23.2191 57.7713C25.9811 61.8431 29.8885 65.0044 34.4472 66.8554C39.0059 68.7065 44.0111 69.1642 48.8299 68.1706C53.6487 67.177 58.0646 64.7768 61.5193 61.2735C64.974 57.7702 67.3123 53.3212 68.2384 48.489C69.1645 43.6568 68.637 38.6584 66.7224 34.1261C64.8078 29.5937 61.5922 25.7309 57.4823 23.026ZM16.1131 46.9999C16.6261 51.449 18.2058 55.7247 20.7364 59.4554C23.8315 64.0182 28.2101 67.5607 33.3186 69.635C38.427 71.7093 44.0358 72.2222 49.4357 71.1088C54.8356 69.9954 59.7841 67.3058 63.6554 63.38C67.5267 59.4542 70.147 54.4686 71.1848 49.0537C72.2226 43.6387 71.6314 38.0376 69.4859 32.9587C67.3405 27.8797 63.7371 23.5511 59.1315 20.52C55.3658 18.0418 51.0684 16.522 46.6126 16.0712C45.6188 15.9706 44.617 15.9232 43.6116 15.9303L43.6649 23.5597C47.6693 23.5317 51.5921 24.6918 54.9371 26.8933C58.2822 29.0948 60.8994 32.2387 62.4576 35.9276C64.0159 39.6165 64.4453 43.6846 63.6915 47.6175C62.9377 51.5504 61.0346 55.1715 58.2229 58.0228C55.4111 60.8742 51.817 62.8277 47.895 63.6363C43.973 64.445 39.8993 64.0725 36.189 62.5659C32.4787 61.0593 29.2985 58.4864 27.0505 55.1724C24.8025 51.8584 23.5877 47.9522 23.5597 43.9478L15.9303 44.0011C15.9373 45.0066 15.9987 46.0075 16.1131 46.9999Z" fill="#DCDCDC"/>
<path d="M58.8169 43.8063C58.8169 52.0964 52.0964 58.8169 43.8063 58.8169C35.5162 58.8169 28.7958 52.0964 28.7958 43.8063C28.7958 35.5162 35.5162 28.7958 43.8063 28.7958C52.0964 28.7958 58.8169 35.5162 58.8169 43.8063Z" fill="#DCDCDC"/>
</svg>
