<svg width="425" height="926" viewBox="0 0 425 926" fill="none" xmlns="http://www.w3.org/2000/svg">
<g clip-path="url(#clip0_4_31)">
<rect width="425" height="926" fill="#FEFEFF"/>
<rect width="428" height="926" fill="#3C5BFF"/>
<path d="M240.862 367.686C158.457 268.215 -39.2338 274.395 -127.778 289.919L-134.4 292.048L29.3005 982.624L559.434 830.01C555.337 689.963 543.578 413.744 529.314 429.248C511.483 448.628 343.869 492.026 240.862 367.686Z" fill="#0E31EA"/>
<path d="M222.035 250.938C211.265 40.5872 46.2123 -13.3335 -34.9678 -14L-102.278 933.777C75.992 946.774 453.582 964.97 537.781 933.777C643.029 894.786 573.271 604.854 487.604 581.86C401.936 558.865 235.497 513.876 222.035 250.938Z" fill="#2C4FFF"/>
<path d="M434.857 260.565C407.858 387.223 534.528 540.196 601.238 600.85L606.984 604.789L1046.12 49.3589L600.052 -277.016C493.061 -187.455 284.309 -7.89496 305.224 -6.1375C331.368 -3.94064 468.605 102.243 434.857 260.565Z" fill="#0E31EA"/>
</g>
<defs>
<clipPath id="clip0_4_31">
<rect width="425" height="926" fill="white"/>
</clipPath>
</defs>
</svg>
